<svg data-v-fde0c5aa="" xmlns="http://www.w3.org/2000/svg" viewBox="0 0 300 300" class="iconLeft"><!----><defs data-v-fde0c5aa=""><!----></defs><rect data-v-fde0c5aa="" fill="#48463E" x="0" y="0" width="300px" height="300px" class="logo-background-square"></rect><defs data-v-fde0c5aa=""><!----></defs><g data-v-fde0c5aa="" id="0324da83-a42e-42c3-8d07-3440128d589a" fill="#ffffff" transform="matrix(2.285567623488663,0,0,2.285567623488663,70.09218745034242,131.95544365615075)"><path d="M1.32 13.09L1.32 13.09Q1.16 13.09 1.06 12.99L1.06 12.99L1.06 12.99Q0.95 12.89 0.95 12.74L0.95 12.74L0.95 3.65L0.95 3.65Q0.95 3.50 1.06 3.39L1.06 3.39L1.06 3.39Q1.16 3.29 1.32 3.29L1.32 3.29L2.90 3.29L2.90 3.29Q3.25 3.29 3.40 3.60L3.40 3.60L5.81 7.91L8.23 3.60L8.23 3.60Q8.39 3.29 8.74 3.29L8.74 3.29L10.32 3.29L10.32 3.29Q10.47 3.29 10.58 3.39L10.58 3.39L10.58 3.39Q10.68 3.50 10.68 3.65L10.68 3.65L10.68 12.74L10.68 12.74Q10.68 12.89 10.58 12.99L10.58 12.99L10.58 12.99Q10.47 13.09 10.32 13.09L10.32 13.09L8.54 13.09L8.54 13.09Q8.40 13.09 8.29 12.98L8.29 12.98L8.29 12.98Q8.19 12.88 8.19 12.74L8.19 12.74L8.19 7.64L6.68 10.42L6.68 10.42Q6.50 10.74 6.19 10.74L6.19 10.74L5.43 10.74L5.43 10.74Q5.15 10.74 4.94 10.42L4.94 10.42L3.44 7.64L3.44 12.74L3.44 12.74Q3.44 12.89 3.34 12.99L3.34 12.99L3.34 12.99Q3.23 13.09 3.08 13.09L3.08 13.09L1.32 13.09ZM15.85 13.23L15.85 13.23Q14.14 13.23 13.16 12.31L13.16 12.31L13.16 12.31Q12.18 11.40 12.15 9.65L12.15 9.65L12.15 9.21L12.15 9.21Q12.21 7.55 13.19 6.61L13.19 6.61L13.19 6.61Q14.17 5.67 15.83 5.67L15.83 5.67L15.83 5.67Q17.04 5.67 17.87 6.15L17.87 6.15L17.87 6.15Q18.70 6.64 19.12 7.48L19.12 7.48L19.12 7.48Q19.53 8.33 19.53 9.41L19.53 9.41L19.53 9.76L19.53 9.76Q19.53 9.91 19.43 10.02L19.43 10.02L19.43 10.02Q19.32 10.12 19.17 10.12L19.17 10.12L14.73 10.12L14.73 10.21L14.73 10.21Q14.74 10.84 15.02 11.22L15.02 11.22L15.02 11.22Q15.30 11.61 15.82 11.61L15.82 11.61L15.82 11.61Q16.16 11.61 16.36 11.47L16.36 11.47L16.36 11.47Q16.56 11.34 16.74 11.13L16.74 11.13L16.74 11.13Q16.87 10.99 16.95 10.96L16.95 10.96L16.95 10.96Q17.02 10.92 17.19 10.92L17.19 10.92L19.03 10.92L19.03 10.92Q19.15 10.92 19.24 11.00L19.24 11.00L19.24 11.00Q19.33 11.07 19.33 11.19L19.33 11.19L19.33 11.19Q19.33 11.55 18.92 12.04L18.92 12.04L18.92 12.04Q18.51 12.53 17.72 12.88L17.72 12.88L17.72 12.88Q16.93 13.23 15.85 13.23L15.85 13.23ZM14.73 8.69L16.95 8.69L16.95 8.67L16.95 8.67Q16.95 7.99 16.66 7.62L16.66 7.62L16.66 7.62Q16.37 7.25 15.83 7.25L15.83 7.25L15.83 7.25Q15.30 7.25 15.02 7.62L15.02 7.62L15.02 7.62Q14.73 7.99 14.73 8.67L14.73 8.67L14.73 8.69ZM21.14 13.09L21.14 13.09Q21 13.09 20.89 12.98L20.89 12.98L20.89 12.98Q20.79 12.88 20.79 12.74L20.79 12.74L20.79 6.16L20.79 6.16Q20.79 6.01 20.89 5.91L20.89 5.91L20.89 5.91Q21 5.81 21.14 5.81L21.14 5.81L22.86 5.81L22.86 5.81Q23.02 5.81 23.11 5.91L23.11 5.91L23.11 5.91Q23.21 6.01 23.21 6.16L23.21 6.16L23.21 6.69L23.21 6.69Q23.59 6.23 24.19 5.95L24.19 5.95L24.19 5.95Q24.78 5.67 25.55 5.67L25.55 5.67L25.55 5.67Q26.35 5.67 26.97 6.03L26.97 6.03L26.97 6.03Q27.59 6.40 27.95 7.11L27.95 7.11L27.95 7.11Q28.31 7.83 28.31 8.83L28.31 8.83L28.31 12.74L28.31 12.74Q28.31 12.88 28.21 12.98L28.21 12.98L28.21 12.98Q28.11 13.09 27.96 13.09L27.96 13.09L26.10 13.09L26.10 13.09Q25.94 13.09 25.84 12.99L25.84 12.99L25.84 12.99Q25.73 12.89 25.73 12.74L25.73 12.74L25.73 8.92L25.73 8.92Q25.73 8.29 25.43 7.95L25.43 7.95L25.43 7.95Q25.13 7.62 24.56 7.62L24.56 7.62L24.56 7.62Q24.00 7.62 23.67 7.96L23.67 7.96L23.67 7.96Q23.35 8.30 23.35 8.92L23.35 8.92L23.35 12.74L23.35 12.74Q23.35 12.88 23.25 12.98L23.25 12.98L23.25 12.98Q23.16 13.09 23.00 13.09L23.00 13.09L21.14 13.09ZM32.51 13.23L32.51 13.23Q31.28 13.23 30.52 12.40L30.52 12.40L30.52 12.40Q29.76 11.58 29.76 10.07L29.76 10.07L29.76 6.16L29.76 6.16Q29.76 6.01 29.87 5.91L29.87 5.91L29.87 5.91Q29.97 5.81 30.11 5.81L30.11 5.81L31.98 5.81L31.98 5.81Q32.13 5.81 32.23 5.91L32.23 5.91L32.23 5.91Q32.34 6.01 32.34 6.16L32.34 6.16L32.34 9.98L32.34 9.98Q32.34 11.28 33.50 11.28L33.50 11.28L33.50 11.28Q34.06 11.28 34.38 10.94L34.38 10.94L34.38 10.94Q34.69 10.60 34.69 9.98L34.69 9.98L34.69 6.16L34.69 6.16Q34.69 6.01 34.80 5.91L34.80 5.91L34.80 5.91Q34.90 5.81 35.06 5.81L35.06 5.81L36.90 5.81L36.90 5.81Q37.06 5.81 37.16 5.91L37.16 5.91L37.16 5.91Q37.25 6.01 37.25 6.16L37.25 6.16L37.25 12.74L37.25 12.74Q37.25 12.88 37.16 12.98L37.16 12.98L37.16 12.98Q37.06 13.09 36.90 13.09L36.90 13.09L35.20 13.09L35.20 13.09Q35.04 13.09 34.94 12.99L34.94 12.99L34.94 12.99Q34.83 12.89 34.83 12.74L34.83 12.74L34.83 12.21L34.83 12.21Q34.10 13.23 32.51 13.23L32.51 13.23ZM32.68 4.76L32.68 4.76Q32.45 4.76 32.45 4.54L32.45 4.54L32.45 4.54Q32.45 4.42 32.52 4.35L32.52 4.35L33.77 2.83L33.77 2.83Q33.91 2.66 34.01 2.61L34.01 2.61L34.01 2.61Q34.12 2.56 34.29 2.56L34.29 2.56L36.22 2.56L36.22 2.56Q36.34 2.56 36.41 2.64L36.41 2.64L36.41 2.64Q36.48 2.72 36.48 2.84L36.48 2.84L36.48 2.84Q36.48 2.94 36.41 3.01L36.41 3.01L34.54 4.55L34.54 4.55Q34.40 4.66 34.29 4.71L34.29 4.71L34.29 4.71Q34.17 4.76 33.99 4.76L33.99 4.76L32.68 4.76ZM41.90 13.23L41.90 13.23Q40.75 13.23 39.98 12.91L39.98 12.91L39.98 12.91Q39.21 12.59 38.84 12.14L38.84 12.14L38.84 12.14Q38.47 11.69 38.47 11.33L38.47 11.33L38.47 11.33Q38.47 11.19 38.58 11.09L38.58 11.09L38.58 11.09Q38.68 11.00 38.81 11.00L38.81 11.00L40.50 11.00L40.50 11.00Q40.59 11.00 40.64 11.06L40.64 11.06L40.64 11.06Q40.88 11.21 40.91 11.24L40.91 11.24L40.91 11.24Q41.17 11.44 41.41 11.54L41.41 11.54L41.41 11.54Q41.64 11.65 41.96 11.65L41.96 11.65L41.96 11.65Q42.34 11.65 42.58 11.50L42.58 11.50L42.58 11.50Q42.83 11.35 42.83 11.09L42.83 11.09L42.83 11.09Q42.83 10.86 42.69 10.72L42.69 10.72L42.69 10.72Q42.56 10.58 42.19 10.45L42.19 10.45L42.19 10.45Q41.82 10.32 41.06 10.18L41.06 10.18L41.06 10.18Q38.64 9.69 38.64 7.94L38.64 7.94L38.64 7.94Q38.64 7.36 39.01 6.84L39.01 6.84L39.01 6.84Q39.38 6.31 40.10 5.99L40.10 5.99L40.10 5.99Q40.82 5.67 41.83 5.67L41.83 5.67L41.83 5.67Q42.85 5.67 43.60 5.98L43.60 5.98L43.60 5.98Q44.35 6.30 44.74 6.74L44.74 6.74L44.74 6.74Q45.14 7.18 45.14 7.55L45.14 7.55L45.14 7.55Q45.14 7.67 45.05 7.77L45.05 7.77L45.05 7.77Q44.95 7.87 44.83 7.87L44.83 7.87L43.29 7.87L43.29 7.87Q43.16 7.87 43.09 7.81L43.09 7.81L43.09 7.81Q42.92 7.73 42.76 7.60L42.76 7.60L42.76 7.60Q42.50 7.43 42.31 7.34L42.31 7.34L42.31 7.34Q42.13 7.25 41.83 7.25L41.83 7.25L41.83 7.25Q41.48 7.25 41.29 7.41L41.29 7.41L41.29 7.41Q41.09 7.56 41.09 7.80L41.09 7.80L41.09 7.80Q41.09 8.01 41.21 8.14L41.21 8.14L41.21 8.14Q41.33 8.27 41.70 8.40L41.70 8.40L41.70 8.40Q42.07 8.53 42.83 8.67L42.83 8.67L42.83 8.67Q44.20 8.90 44.82 9.51L44.82 9.51L44.82 9.51Q45.44 10.12 45.44 10.93L45.44 10.93L45.44 10.93Q45.44 11.98 44.51 12.61L44.51 12.61L44.51 12.61Q43.58 13.23 41.90 13.23L41.90 13.23ZM47.15 13.09L47.15 13.09Q47.01 13.09 46.91 12.98L46.91 12.98L46.91 12.98Q46.80 12.88 46.80 12.74L46.80 12.74L46.80 3.65L46.80 3.65Q46.80 3.50 46.90 3.39L46.90 3.39L46.90 3.39Q47.00 3.29 47.15 3.29L47.15 3.29L50.83 3.29L50.83 3.29Q52.91 3.29 54.05 4.28L54.05 4.28L54.05 4.28Q55.20 5.26 55.26 7.11L55.26 7.11L55.26 7.11Q55.27 7.52 55.27 8.19L55.27 8.19L55.27 8.19Q55.27 8.86 55.26 9.25L55.26 9.25L55.26 9.25Q55.12 13.09 50.90 13.09L50.90 13.09L47.15 13.09ZM49.43 10.99L50.83 10.99L50.83 10.99Q51.72 10.99 52.14 10.57L52.14 10.57L52.14 10.57Q52.56 10.15 52.58 9.23L52.58 9.23L52.58 9.23Q52.61 8.82 52.61 8.18L52.61 8.18L52.61 8.18Q52.61 7.53 52.58 7.14L52.58 7.14L52.58 7.14Q52.56 6.24 52.10 5.82L52.10 5.82L52.10 5.82Q51.65 5.39 50.76 5.39L50.76 5.39L49.43 5.39L49.43 10.99ZM60.13 13.23L60.13 13.23Q58.42 13.23 57.44 12.31L57.44 12.31L57.44 12.31Q56.46 11.40 56.43 9.65L56.43 9.65L56.43 9.21L56.43 9.21Q56.49 7.55 57.47 6.61L57.47 6.61L57.47 6.61Q58.45 5.67 60.12 5.67L60.12 5.67L60.12 5.67Q61.32 5.67 62.15 6.15L62.15 6.15L62.15 6.15Q62.99 6.64 63.40 7.48L63.40 7.48L63.40 7.48Q63.81 8.33 63.81 9.41L63.81 9.41L63.81 9.76L63.81 9.76Q63.81 9.91 63.71 10.02L63.71 10.02L63.71 10.02Q63.60 10.12 63.45 10.12L63.45 10.12L59.01 10.12L59.01 10.21L59.01 10.21Q59.02 10.84 59.30 11.22L59.30 11.22L59.30 11.22Q59.58 11.61 60.10 11.61L60.10 11.61L60.10 11.61Q60.44 11.61 60.64 11.47L60.64 11.47L60.64 11.47Q60.84 11.34 61.03 11.13L61.03 11.13L61.03 11.13Q61.15 10.99 61.23 10.96L61.23 10.96L61.23 10.96Q61.31 10.92 61.47 10.92L61.47 10.92L63.31 10.92L63.31 10.92Q63.43 10.92 63.53 11.00L63.53 11.00L63.53 11.00Q63.62 11.07 63.62 11.19L63.62 11.19L63.62 11.19Q63.62 11.55 63.20 12.04L63.20 12.04L63.20 12.04Q62.79 12.53 62.00 12.88L62.00 12.88L62.00 12.88Q61.21 13.23 60.13 13.23L60.13 13.23ZM59.01 8.69L61.24 8.69L61.24 8.67L61.24 8.67Q61.24 7.99 60.94 7.62L60.94 7.62L60.94 7.62Q60.65 7.25 60.12 7.25L60.12 7.25L60.12 7.25Q59.58 7.25 59.30 7.62L59.30 7.62L59.30 7.62Q59.01 7.99 59.01 8.67L59.01 8.67L59.01 8.69ZM65.58 13.09L65.58 13.09Q65.44 13.09 65.33 12.98L65.33 12.98L65.33 12.98Q65.23 12.88 65.23 12.74L65.23 12.74L65.23 3.65L65.23 3.65Q65.23 3.50 65.32 3.39L65.32 3.39L65.32 3.39Q65.42 3.29 65.58 3.29L65.58 3.29L69.54 3.29L69.54 3.29Q71.36 3.29 72.39 4.12L72.39 4.12L72.39 4.12Q73.43 4.94 73.43 6.54L73.43 6.54L73.43 6.54Q73.43 8.13 72.39 8.93L72.39 8.93L72.39 8.93Q71.36 9.72 69.54 9.72L69.54 9.72L67.94 9.72L67.94 12.74L67.94 12.74Q67.94 12.88 67.84 12.98L67.84 12.98L67.84 12.98Q67.75 13.09 67.59 13.09L67.59 13.09L65.58 13.09ZM67.90 7.71L69.47 7.71L69.47 7.71Q70.04 7.71 70.37 7.41L70.37 7.41L70.37 7.41Q70.70 7.11 70.70 6.52L70.70 6.52L70.70 6.52Q70.70 5.98 70.40 5.64L70.40 5.64L70.40 5.64Q70.10 5.31 69.47 5.31L69.47 5.31L67.90 5.31L67.90 7.71ZM75.08 13.09L75.08 13.09Q74.94 13.09 74.84 12.98L74.84 12.98L74.84 12.98Q74.73 12.88 74.73 12.74L74.73 12.74L74.73 3.65L74.73 3.65Q74.73 3.50 74.83 3.39L74.83 3.39L74.83 3.39Q74.93 3.29 75.08 3.29L75.08 3.29L78.93 3.29L78.93 3.29Q80.78 3.29 81.82 4.13L81.82 4.13L81.82 4.13Q82.87 4.97 82.87 6.50L82.87 6.50L82.87 6.50Q82.87 7.48 82.41 8.16L82.41 8.16L82.41 8.16Q81.96 8.85 81.16 9.23L81.16 9.23L83.05 12.64L83.05 12.64Q83.09 12.73 83.09 12.80L83.09 12.80L83.09 12.80Q83.09 12.91 83.01 13.00L83.01 13.00L83.01 13.00Q82.92 13.09 82.80 13.09L82.80 13.09L80.82 13.09L80.82 13.09Q80.42 13.09 80.25 12.71L80.25 12.71L78.71 9.67L77.36 9.67L77.36 12.74L77.36 12.74Q77.36 12.89 77.26 12.99L77.26 12.99L77.26 12.99Q77.15 13.09 77 13.09L77 13.09L75.08 13.09ZM77.36 7.62L78.92 7.62L78.92 7.62Q79.52 7.62 79.84 7.31L79.84 7.31L79.84 7.31Q80.15 7.01 80.15 6.48L80.15 6.48L80.15 6.48Q80.15 5.95 79.84 5.63L79.84 5.63L79.84 5.63Q79.52 5.31 78.92 5.31L78.92 5.31L77.36 5.31L77.36 7.62Z"></path></g><defs data-v-fde0c5aa=""><!----></defs><g data-v-fde0c5aa="" id="29d29788-c7bb-44bf-9905-b1bfe0f06c06" stroke="none" fill="#CB594D" transform="matrix(0.36580833819450154,0,0,0.36580833819450154,40.0000041863442,131.72433158089981)"><path d="M24.4 32.602c-.018 3.233-2.977 6.711-6.812 6.711v54.794c-.001 7.803-10.607 7.803-10.623 0V39.313c-3.722 0-6.972-2.88-6.965-7.168V1.951C-.007-.67 3.787-.771 3.812 2.053v22.313h3.153V1.848c0-2.407 3.652-2.563 3.661.103v22.415h3.251V1.899c.024-2.539 3.573-2.64 3.558.102v22.365h3.255V1.899c-.012-2.513 3.695-2.615 3.711.102v30.601H24.4zM52.66 8.965v85.142c.014 7.606-10.612 7.493-10.622 0V60.304h-5.643V8.965c-.006-11.953 16.279-11.953 16.265 0z"></path></g><!----></svg>